<svg width="32" height="28" viewBox="0 0 32 28" fill="none" xmlns="http://www.w3.org/2000/svg">
<path d="M12.7205 0L7.75155 20.1368L6.55901 14.3834C8.48033 14.3834 10.0704 14.9786 11.3292 16.1689C12.588 17.3593 13.2174 18.9464 13.2174 20.9304C13.2174 22.9143 12.588 24.5345 11.3292 25.791C10.0704 27.0474 8.51346 27.6757 6.65838 27.6757C4.73706 27.6757 3.147 27.0474 1.8882 25.791C0.6294 24.4683 0 22.8481 0 20.9304C0 20.269 0.0331262 19.6408 0.0993787 19.0456C0.231884 18.4505 0.430642 17.7561 0.695652 16.9625C0.960662 16.1028 1.32505 15.0778 1.78882 13.8874L6.45963 0H12.7205ZM31.5031 0L26.5342 20.1368L25.3416 14.3834C27.2629 14.3834 28.853 14.9786 30.1118 16.1689C31.3706 17.3593 32 18.9464 32 20.9304C32 22.9143 31.3706 24.5345 30.1118 25.791C28.853 27.0474 27.2961 27.6757 25.441 27.6757C23.5197 27.6757 21.9296 27.0474 20.6708 25.791C19.412 24.4683 18.7826 22.8481 18.7826 20.9304C18.7826 20.269 18.8157 19.6408 18.882 19.0456C19.0145 18.4505 19.2132 17.7561 19.4783 16.9625C19.7433 16.1028 20.1077 15.0778 20.5714 13.8874L25.2422 0H31.5031Z" fill="#020617" fill-opacity="0.25"/>
</svg>
